<svg width="256" height="256" viewBox="0 0 256 256" xmlns="http://www.w3.org/2000/svg"><title>icon</title><desc>Created with Sketch.</desc><g fill="none"><circle fill="#57D78D" cx="128" cy="128" r="128"/><path d="M121.6 101.6c0-14.138 11.462-25.6 25.6-25.6 14.138 0 25.6 11.462 25.6 25.6v51.2h19.2l-25.6 25.6-25.6-25.6h19.2v-51.2c0-7.069-5.731-12.8-12.8-12.8-7.069 0-12.8 5.731-12.8 12.8v51.2c0 14.138-11.462 25.6-25.6 25.6-14.138 0-25.6-11.462-25.6-25.6v-51.2h-19.2l25.6-25.6 25.6 25.6h-19.2v51.2c0 7.069 5.731 12.8 12.8 12.8 7.069 0 12.8-5.731 12.8-12.8v-51.2z" fill="#E4FCEC" fill-rule="nonzero"/></g></svg>